<svg xmlns="http://www.w3.org/2000/svg" version="1.1" xmlns:xlink="http://www.w3.org/1999/xlink" xmlns:svgjs="http://svgjs.dev/svgjs" width="1000" height="1006" viewBox="0 0 1000 1006"><g transform="matrix(1,0,0,1,0.5246543498165579,0.31061255656203457)"><svg viewBox="0 0 325 327" data-background-color="#ffffff" preserveAspectRatio="xMidYMid meet" height="1006" width="1000" xmlns="http://www.w3.org/2000/svg" xmlns:xlink="http://www.w3.org/1999/xlink"><g id="tight-bounds" transform="matrix(1,0,0,1,-0.1705126636903742,-0.10096407610066649)"><svg viewBox="0 0 325.34085453255534 327.2" height="327.2" width="325.34085453255534"><g><svg viewBox="0 0 395.52 397.7801809918407" height="327.2" width="325.34085453255534"><g transform="matrix(1,0,0,1,0,155.6841646100832)"><svg viewBox="0 0 395.52 242.09601638175752" height="242.09601638175752" width="395.52"><g id="textblocktransform"><svg viewBox="0 0 395.52 242.09601638175752" height="242.09601638175752" width="395.52" id="textblock"><g><svg viewBox="0 0 395.52 242.09601638175752" height="242.09601638175752" width="395.52"><g transform="matrix(1,0,0,1,0,0)"><svg width="395.52" viewBox="26.639888763427734 -7.23256778717041 45.45908737182617 27.825298309326172" height="242.09601638175752" data-palette-color="#323660"><path d="M34.384 19.655l-7.744-0.501 0.043-0.669 2.689-0.828 1.203-18.591-2.528-1.196 0.044-0.669 4.66 0.302 11.937 17.778 0.99-15.308-3.061-1.16 0.043-0.669 7.654 0.495-0.043 0.669-2.699 0.828-1.324 20.457-1.028-0.067-12.867-19.04-1.053 16.266 3.127 1.234zM52.12 18.639l-7.001 1.546-0.145-0.655 2.353-1.543-3.326-18.314-3.021-0.418-0.145-0.655 5.625-1.241 11.594 16.15 3.805-19.55 5.4-1.192 0.144 0.655-2.512 1.609 4.573 18.069 2.491 0.474 0.144 0.655-7.158 1.58-0.144-0.655 2.205-1.469-4.084-16.785-3.965 20.405-1.133 0.25-12.005-16.808 3.317 16.882 2.844 0.356z" opacity="1" transform="matrix(1,0,0,1,0,0)" fill="#323660" class="wordmark-text-0" data-fill-palette-color="primary" id="text-0"></path></svg></g></svg></g></svg></g></svg></g><g transform="matrix(1,0,0,1,75.54432,0)"><svg viewBox="0 0 244.43135999999998 132.54065135323896" height="132.54065135323896" width="244.43135999999998"><g><svg xmlns="http://www.w3.org/2000/svg" xmlns:xlink="http://www.w3.org/1999/xlink" version="1.1" x="0" y="0" viewBox="1.3580002784729004 23.701000213623047 97.0030517578125 52.5990104675293" enable-background="new 0 0 100 100" xml:space="preserve" height="132.54065135323896" width="244.43135999999998" class="icon-icon-0" data-fill-palette-color="accent" id="icon-0"><g fill="#fcce22" data-fill-palette-color="accent"><g fill="#fcce22" data-fill-palette-color="accent"><path d="M69.762 63.905c0.085-0.064 0.17-0.13 0.243-0.211 0.604-0.667 0.334-1.566 0.246-2.438C70.218 60.922 70 60.557 70 60.173v-6.306c0-2.73-0.355-4.533-1.505-5.673-1.154-1.145-2.686-1.5-4.762-1.606 1.432-1.334 2.378-3.229 2.378-5.336 0-4.029-3.256-7.308-7.286-7.308-0.074 0-0.134 0.009-0.208 0.012-0.02-0.002-0.03-0.012-0.05-0.012-0.994 0-1.801-0.809-1.801-1.803 0-0.686 0.56-1.242 1.245-1.242 0.438 0 0.794 0.355 0.794 0.793 0 0.553 0.448 1 1.001 1s1-0.447 1-1c0-1.54-1.253-2.793-2.794-2.793-1.788 0-3.243 1.454-3.243 3.242 0 0.965 0.373 1.837 0.967 2.509-2.475 1.171-4.194 3.686-4.194 6.602 0 2.105 0.9 4 2.331 5.335-2.076 0.105-3.865 0.463-5.02 1.606C47.705 49.334 47 51.137 47 53.867v6.306c0 0.384 0.131 0.749 0.098 1.084-0.088 0.871-0.093 1.771 0.511 2.438 0.008 0.009 0.062 0.015 0.07 0.023l-2.509 2.529c-1.185 1.186-1.53 2.955-0.899 4.509 0.045 0.109 0.114 0.21 0.194 0.298l3.684 4.028c0.81 0.81 1.875 1.215 2.938 1.214 1.063 0 2.128-0.404 2.938-1.214 1.618-1.618 1.619-4.253 0.001-5.874l-0.024-0.024 2.132-2.131c0.78 0.268 1.676 0.427 2.715 0.427 0.905 0 1.695-0.128 2.403-0.336l2.042 2.041-0.022 0.023c-0.785 0.785-1.217 1.828-1.218 2.938 0 1.109 0.433 2.152 1.216 2.937 0.784 0.784 1.826 1.217 2.936 1.217 0.001 0 0.001 0 0.001 0 1.11 0 2.153-0.433 2.937-1.217l2.963-2.962c0.047-0.047 0.089-0.099 0.126-0.153l0.688-1.034c0.036-0.056 0.067-0.113 0.093-0.175 0.635-1.553 0.279-3.323-0.907-4.511L69.762 63.905zM53.542 41.465c0-2.927 2.38-5.414 5.306-5.414 2.927 0 5.309 2.541 5.309 5.468 0 2.918-2.37 5.463-5.286 5.463h-0.045C55.91 46.981 53.542 44.383 53.542 41.465zM49 53.867c0-2.162 0.518-3.514 1.262-4.254 1.121-1.11 3.571-1.092 6.833-1.064 0.513 0.004 1.103 0.006 1.648 0.006 0.021 0 0.062 0.003 0.083 0.003s0.052-0.003 0.073-0.003c0.547 0 1.1-0.002 1.611-0.006 3.273-0.026 5.453-0.046 6.573 1.065C67.829 50.354 68 51.705 68 53.867v6.306c0 0.454 0.222 0.887 0.262 1.283 0.028 0.285 0.155 0.656 0.142 0.859-0.044 0.006-0.138 0.01-0.217 0.01-1.188 0-2.187-0.966-2.187-2.152v-6.306c0-0.553-0.447-1-1-1s-1 0.447-1 1v5.114H54v-5.114c0-0.553-0.447-1-1-1s-1 0.447-1 1v6.306c0 1.187-1.195 2.152-2.383 2.152-0.078 0-0.254-0.004-0.298-0.01-0.014-0.203-0.203-0.574-0.175-0.859C49.185 61.06 49 60.627 49 60.173V53.867zM51.88 68.477c-0.188 0.188-0.293 0.441-0.293 0.707s0.105 0.52 0.293 0.707l0.73 0.731c0.84 0.84 0.84 2.207 0.001 3.046s-2.205 0.84-3.015 0.032l-3.518-3.851c-0.248-0.769-0.05-1.612 0.526-2.188l3.356-3.356c0.012-0.012 0.016-0.028 0.026-0.04 0.837-0.123 1.59-0.489 2.188-1.034 0.427 1.034 1.105 2.05 2.118 2.833L51.88 68.477zM58.848 65.288c-3.888 0-4.928-2.307-5.205-4.307h10.408C63.767 62.981 62.717 65.288 58.848 65.288zM71.192 69.916l-0.572 0.86-2.893 2.892c-0.406 0.407-0.947 0.631-1.522 0.631s-1.115-0.225-1.521-0.631c-0.407-0.406-0.631-0.947-0.631-1.522s0.225-1.116 0.633-1.524l0.729-0.731c0.39-0.391 0.39-1.023-0.001-1.413l-2.239-2.237c1.145-0.801 1.889-1.896 2.348-3.009 0.483 0.44 1.069 0.764 1.719 0.938 0.032 0.045 0.051 0.096 0.091 0.136l3.357 3.356C71.283 68.256 71.476 69.132 71.192 69.916zM98.281 56.06C98.248 55.725 98 55.358 98 54.975v-6.307c0-2.729-0.325-4.532-1.475-5.672-1.154-1.146-2.666-1.502-4.744-1.607 1.43-1.335 2.383-3.229 2.383-5.335 0-4.029-3.251-7.308-7.28-7.308-0.128 0-0.238 0.013-0.364 0.02-0.032-0.004-0.056-0.02-0.089-0.02-0.994 0-1.8-0.809-1.8-1.803 0-0.686 0.559-1.242 1.244-1.242 0.438 0 0.795 0.355 0.795 0.793 0 0.553 0.448 1 1.001 1s1-0.447 1-1c0-1.54-1.253-2.793-2.794-2.793-1.788 0-3.243 1.454-3.243 3.242 0 0.996 0.394 1.897 1.023 2.576-2.399 1.2-4.055 3.674-4.055 6.534 0 2.105 0.901 4.001 2.332 5.336-2.076 0.105-3.896 0.461-5.05 1.606C75.734 44.136 75 45.938 75 48.668v6.307c0 0.384 0.162 0.75 0.129 1.085-0.088 0.87-0.078 1.771 0.525 2.438 0.384 0.425 1.187 0.631 1.943 0.631 0.791 0 1.402-0.234 2.402-0.619v13.637c0 2.29 1.664 4.153 3.955 4.153 1.268 0 2.292-0.583 3.055-1.481 0.763 0.898 1.728 1.481 2.995 1.481 2.29 0 3.995-1.863 3.995-4.153V58.509c1 0.385 1.472 0.619 2.263 0.619 0.756 0 1.26-0.206 1.645-0.631C98.51 57.831 98.369 56.931 98.281 56.06zM81.603 35.865c0-2.926 2.381-5.213 5.308-5.213 2.926 0 5.307 2.24 5.307 5.166 0 2.918-2.367 5.163-5.28 5.163h-0.053C83.97 40.981 81.603 38.783 81.603 35.865zM86 72.146c0 1.188-0.812 2.153-2 2.153s-2-0.966-2-2.153V60.19c1 1.037 2 1.836 4 2.039V72.146zM92 72.146c0 1.188-0.812 2.153-2 2.153s-2-0.966-2-2.153v-9.916c2-0.203 3-1.002 4-2.039V72.146zM86.91 60.289c-3.89 0-4.93-2.308-5.207-4.308h10.408C91.827 57.981 90.777 60.289 86.91 60.289zM96.263 57.128c-1.188 0-2.263-0.966-2.263-2.153v-6.307c0-0.553-0.447-1-1-1s-1 0.447-1 1v5.313H82v-5.313c0-0.553-0.447-1-1-1s-1 0.447-1 1v6.307c0 1.188-1.164 2.153-2.352 2.153-0.08 0-0.239-0.004-0.283-0.01-0.014-0.203-0.227-0.574-0.198-0.859 0.04-0.396-0.167-0.83-0.167-1.284v-6.307c0-2.162 0.547-3.513 1.293-4.252 1.119-1.111 3.582-1.093 6.847-1.064 0.519 0.004 1.121 0.006 1.674 0.006 0.016 0 0.056 0.003 0.071 0.003s0.044-0.003 0.06-0.003c0.553 0 1.112-0.002 1.63-0.006 3.271-0.027 5.42-0.046 6.54 1.064C95.859 45.155 96 46.507 96 48.668v6.307c0 0.454 0.252 0.888 0.292 1.284 0.028 0.285 0.275 0.656 0.262 0.859C96.51 57.124 96.342 57.128 96.263 57.128zM37.046 67.981h-4.127c0.012 0 0.083-0.707 0.048-1.065C32.934 66.581 33 66.222 33 65.838v-3.154c0-2.729-0.641-4.531-1.789-5.671-1.154-1.146-2.829-1.5-4.904-1.605 1.431-1.335 2.306-3.23 2.306-5.337 0-4.029-3.292-7.307-7.321-7.307-0.994 0-1.81-0.81-1.81-1.804 0-0.685 0.554-1.242 1.239-1.242 0.438 0 0.793 0.356 0.793 0.794 0 0.552 0.446 1 0.999 1s0.999-0.448 0.999-1c0-1.541-1.253-2.794-2.794-2.794-1.788 0-3.243 1.455-3.243 3.242 0 0.921 0.342 1.756 0.889 2.414-2.581 1.129-4.391 3.704-4.391 6.696 0 2.106 0.901 4.002 2.332 5.337-2.078 0.105-3.582 0.46-4.736 1.605C10.42 58.152 10 59.954 10 62.684v3.154c0 0.384-0.154 0.743-0.188 1.078-0.035 0.358-0.185 1.065-0.174 1.065H5.511c-2.29 0-4.153 1.709-4.153 4 0 2.289 1.863 4 4.153 4h31.535c2.291 0 4.155-1.711 4.155-4C41.201 69.69 39.337 67.981 37.046 67.981zM15.973 49.874c0-2.927 2.38-5.209 5.306-5.209 2.927 0 5.308 2.233 5.308 5.159 0 2.917-2.365 5.157-5.277 5.157h-0.061C18.337 54.981 15.973 52.79 15.973 49.874zM11.803 67.121C11.842 66.725 12 66.292 12 65.838v-3.154c0-2.161 0.23-3.512 0.977-4.251 1.119-1.109 3.42-1.087 6.685-1.063 0.515 0.004 1.035 0.006 1.584 0.006 0.021 0 0.027 0.003 0.048 0.003s0.033-0.003 0.055-0.003c0.549 0 1.095-0.002 1.61-0.006 3.264-0.028 5.727-0.046 6.846 1.063C30.55 59.172 31 60.522 31 62.684v3.154c0 0.453-0.062 0.887-0.023 1.282 0.029 0.287 0.014 0.66 0 0.863-0.044 0.006 0.076 0.01-0.003 0.01-1.188 0-1.974-0.967-1.974-2.155v-3.154c0-0.553-0.447-1-1-1s-1 0.447-1 1v3.154c0 0.792-0.18 1.144 0.206 2.144H15.353c0.386-1 0.647-1.352 0.647-2.144v-3.154c0-0.553-0.447-1-1-1s-1 0.447-1 1v3.154c0 1.188-0.98 2.155-2.168 2.155-0.079 0-0.153-0.004-0.197-0.01C11.621 67.78 11.773 67.407 11.803 67.121zM5.511 73.981c-1.188 0-2.153-0.812-2.153-2s0.966-2 2.153-2h8.534c0.188 1 0.776 3 2.021 4H5.511zM21.278 74.287c-3.888 0-4.928-2.306-5.205-4.306h10.412C26.208 71.981 25.166 74.287 21.278 74.287zM37.046 73.981H26.493c1.243-1 1.832-3 2.021-4h8.532c1.188 0 2.155 0.812 2.155 2S38.234 73.981 37.046 73.981z" fill="#fcce22" data-fill-palette-color="accent"></path></g></g></svg></g></svg></g><g></g></svg></g><defs></defs></svg><rect width="325.34085453255534" height="327.2" fill="none" stroke="none" visibility="hidden"></rect></g></svg></g></svg>